<svg width="26" height="26" viewBox="0 0 26 26" fill="none" xmlns="http://www.w3.org/2000/svg">
<g clip-path="url(#clip0_189_1264)">
<path d="M10.3188 12.4347L18.2813 20.7434C18.5521 21.026 18.6832 21.3606 18.6745 21.7472C18.6659 22.1338 18.5257 22.4681 18.2542 22.7499C17.9834 23.0325 17.6627 23.1738 17.2922 23.1738C16.9217 23.1738 16.6014 23.0325 16.3313 22.7499L8.01669 14.0456C7.80002 13.8195 7.63752 13.5651 7.52919 13.2825C7.42086 12.9999 7.36669 12.7173 7.36669 12.4347C7.36669 12.1521 7.42086 11.8695 7.52919 11.5869C7.63752 11.3043 7.80002 11.0499 8.01669 10.8238L16.3584 2.11948C16.6292 1.83687 16.9452 1.70009 17.3063 1.70914C17.6674 1.71818 17.9834 1.86438 18.2542 2.14774C18.525 2.43035 18.6604 2.76496 18.6604 3.15157C18.6604 3.53818 18.525 3.87241 18.2542 4.15426L10.3188 12.4347Z" fill="#FF0000"/>
</g>
<defs>
<clipPath id="clip0_189_1264">
<rect width="26" height="26" fill="white" transform="matrix(-1 0 0 -1 26 26)"/>
</clipPath>
</defs>
</svg>
