<svg width="26" height="26" viewBox="0 0 26 26" fill="none" xmlns="http://www.w3.org/2000/svg">
<g clip-path="url(#clip0_189_1255)">
<path d="M15.6812 13.5653L7.71873 5.25661C7.44789 4.974 7.31681 4.63939 7.32548 4.25278C7.33414 3.86617 7.47425 3.53194 7.74581 3.25008C8.01664 2.96748 8.33731 2.82617 8.70781 2.82617C9.07831 2.82617 9.39862 2.96748 9.66873 3.25008L17.9833 11.9544C18.2 12.1805 18.3625 12.4349 18.4708 12.7175C18.5791 13.0001 18.6333 13.2827 18.6333 13.5653C18.6333 13.8479 18.5791 14.1305 18.4708 14.4131C18.3625 14.6957 18.2 14.9501 17.9833 15.1762L9.64164 23.8805C9.37081 24.1631 9.05484 24.2999 8.69373 24.2909C8.33261 24.2818 8.01664 24.1356 7.74581 23.8523C7.47498 23.5696 7.33956 23.235 7.33956 22.8484C7.33956 22.4618 7.47498 22.1276 7.74581 21.8457L15.6812 13.5653Z" fill="#FF0000"/>
</g>
<defs>
<clipPath id="clip0_189_1255">
<rect width="26" height="26" fill="white"/>
</clipPath>
</defs>
</svg>
