<svg width="22" height="25" viewBox="0 0 22 25" fill="none" xmlns="http://www.w3.org/2000/svg">
<path d="M1.10375 6.3775L10.925 12.0587L20.7463 6.3775M10.925 23.3875V12.0475M21.05 16.5475V7.5475C21.0496 7.15293 20.9454 6.76541 20.748 6.4238C20.5505 6.0822 20.2667 5.79853 19.925 5.60125L12.05 1.10125C11.708 0.903769 11.32 0.799805 10.925 0.799805C10.53 0.799805 10.142 0.903769 9.8 1.10125L1.925 5.60125C1.5833 5.79853 1.29948 6.0822 1.10202 6.4238C0.904564 6.76541 0.800408 7.15293 0.800003 7.5475V16.5475C0.800408 16.9421 0.904564 17.3296 1.10202 17.6712C1.29948 18.0128 1.5833 18.2965 1.925 18.4937L9.8 22.9937C10.142 23.1912 10.53 23.2952 10.925 23.2952C11.32 23.2952 11.708 23.1912 12.05 22.9937L19.925 18.4937C20.2667 18.2965 20.5505 18.0128 20.748 17.6712C20.9454 17.3296 21.0496 16.9421 21.05 16.5475Z" stroke="#545454" stroke-width="1.6" stroke-linecap="round" stroke-linejoin="round"/>
</svg>
