<svg width="31" height="31" viewBox="0 0 31 31" fill="none" xmlns="http://www.w3.org/2000/svg">
<path d="M8.66667 14L14 2C15.0609 2 16.0783 2.42143 16.8284 3.17157C17.5786 3.92172 18 4.93913 18 6V11.3333H25.5467C25.9332 11.329 26.3161 11.4087 26.6688 11.567C27.0214 11.7252 27.3355 11.9583 27.5891 12.25C27.8428 12.5417 28.03 12.8851 28.1378 13.2563C28.2456 13.6276 28.2713 14.0178 28.2133 14.4L26.3733 26.4C26.2769 27.0359 25.9539 27.6155 25.4639 28.032C24.9738 28.4485 24.3498 28.6739 23.7067 28.6667H8.66667M8.66667 14V28.6667M8.66667 14H4.66667C3.95942 14 3.28115 14.281 2.78105 14.781C2.28095 15.2811 2 15.9594 2 16.6667V26C2 26.7072 2.28095 27.3855 2.78105 27.8856C3.28115 28.3857 3.95942 28.6667 4.66667 28.6667H8.66667" stroke="#1E1E1E" stroke-width="4" stroke-linecap="round" stroke-linejoin="round"/>
</svg>
