<svg width="32" height="32" viewBox="0 0 32 32" fill="none" xmlns="http://www.w3.org/2000/svg">
<path d="M22.6666 17.3334L17.3333 29.3334C16.2724 29.3334 15.255 28.912 14.5049 28.1618C13.7547 27.4117 13.3333 26.3943 13.3333 25.3334V20.0001H5.78665C5.4001 20.0045 5.01723 19.9247 4.66455 19.7665C4.31187 19.6082 3.99783 19.3751 3.74417 19.0834C3.49051 18.7917 3.30331 18.4483 3.19553 18.0771C3.08775 17.7058 3.06197 17.3156 3.11998 16.9334L4.95998 4.93341C5.05641 4.29753 5.3794 3.71793 5.86944 3.3014C6.35948 2.88487 6.98354 2.65947 7.62665 2.66674H22.6666M22.6666 17.3334V2.66674M22.6666 17.3334H26.2266C26.9813 17.3468 27.7145 17.0826 28.2872 16.591C28.8599 16.0994 29.2321 15.4147 29.3333 14.6667V5.33341C29.2321 4.58549 28.8599 3.90074 28.2872 3.40917C27.7145 2.91759 26.9813 2.6534 26.2266 2.66674H22.6666" stroke="#1E1E1E" stroke-width="4" stroke-linecap="round" stroke-linejoin="round"/>
</svg>
